<svg xmlns="http://www.w3.org/2000/svg" style="display: none">
  <symbol id="icon-sprout" viewBox="0 0 24 24" fill="none" stroke="currentColor" stroke-width="1.6" stroke-linecap="round" stroke-linejoin="round">
    <path d="M12 21V12" />
    <path d="M12 12C12 8 9 6 5 6C5 10 8 12 12 12Z" />
    <path d="M12 12C12 8 15 6 19 6C19 10 16 12 12 12Z" />
  </symbol>

  <symbol id="icon-briefcase" viewBox="0 0 24 24" fill="none" stroke="currentColor" stroke-width="1.6" stroke-linecap="round" stroke-linejoin="round">
    <rect x="3" y="8" width="18" height="12" rx="2" />
    <path d="M8 8V6a2 2 0 0 1 2-2h4a2 2 0 0 1 2 2v2" />
    <path d="M3 13h18" />
  </symbol>

  <symbol id="icon-compass" viewBox="0 0 24 24" fill="none" stroke="currentColor" stroke-width="1.6" stroke-linecap="round" stroke-linejoin="round">
    <circle cx="12" cy="12" r="9" />
    <path d="M15 9l-2 6-6 2 2-6 6-2Z" />
  </symbol>

  <symbol id="icon-award" viewBox="0 0 24 24" fill="none" stroke="currentColor" stroke-width="1.6" stroke-linecap="round" stroke-linejoin="round">
    <circle cx="12" cy="8" r="5" />
    <path d="M9 12.5 7 21l5-3 5 3-2-8.5" />
  </symbol>

  <symbol id="icon-heart" viewBox="0 0 24 24" fill="none" stroke="currentColor" stroke-width="1.6" stroke-linecap="round" stroke-linejoin="round">
    <path d="M12 20s-7-4.35-9.5-8.5C.7 8 2 4.5 5.5 4.5c2 0 3.5 1.2 4.5 2.7C11 5.7 12.5 4.5 14.5 4.5 18 4.5 19.3 8 19.5 11.5 17 15.65 12 20 12 20Z" />
  </symbol>

  <symbol id="icon-chat" viewBox="0 0 24 24" fill="none" stroke="currentColor" stroke-width="1.6" stroke-linecap="round" stroke-linejoin="round">
    <path d="M4 5h16v11H8l-4 4V5Z" />
    <path d="M8 9h8M8 12h5" />
  </symbol>

  <symbol id="icon-signpost" viewBox="0 0 24 24" fill="none" stroke="currentColor" stroke-width="1.6" stroke-linecap="round" stroke-linejoin="round">
    <path d="M12 3v18" />
    <path d="M12 6h6l2 2-2 2h-6" />
    <path d="M12 10H6l-2 2 2 2h6" />
  </symbol>

  <symbol id="icon-cycle" viewBox="0 0 24 24" fill="none" stroke="currentColor" stroke-width="1.6" stroke-linecap="round" stroke-linejoin="round">
    <path d="M20 11A8 8 0 0 0 6.3 6.3L4 8.6" />
    <path d="M4 4v4.6h4.6" />
    <path d="M4 13a8 8 0 0 0 13.7 4.7L20 15.4" />
    <path d="M20 20v-4.6h-4.6" />
  </symbol>

  <symbol id="icon-people" viewBox="0 0 24 24" fill="none" stroke="currentColor" stroke-width="1.6" stroke-linecap="round" stroke-linejoin="round">
    <circle cx="8" cy="8" r="3" />
    <circle cx="17" cy="9" r="2.5" />
    <path d="M2 20c0-3.3 2.7-6 6-6s6 2.7 6 6" />
    <path d="M14.5 14.2c2.5.4 4.5 2.5 4.5 5.8" />
  </symbol>

  <symbol id="icon-rocket" viewBox="0 0 24 24" fill="none" stroke="currentColor" stroke-width="1.6" stroke-linecap="round" stroke-linejoin="round">
    <path d="M12 2c3 2 5 6 5 10-1 1-2 2-5 2s-4-1-5-2c0-4 2-8 5-10Z" />
    <circle cx="12" cy="9" r="1.5" />
    <path d="M9 14l-3 3 1 3 3-1" />
    <path d="M15 14l3 3-1 3-3-1" />
  </symbol>

  <symbol id="icon-link" viewBox="0 0 24 24" fill="none" stroke="currentColor" stroke-width="1.6" stroke-linecap="round" stroke-linejoin="round">
    <path d="M10 14a4 4 0 0 0 5.7 0l3-3a4 4 0 0 0-5.7-5.7l-1.5 1.5" />
    <path d="M14 10a4 4 0 0 0-5.7 0l-3 3a4 4 0 0 0 5.7 5.7l1.5-1.5" />
  </symbol>

  <symbol id="icon-quote" viewBox="0 0 24 24" fill="currentColor" stroke="none">
    <path d="M9.5 6C6.5 6 4 8.5 4 11.5c0 2.5 1.8 4.5 4 4.9-.3 1.6-1.4 2.9-3 3.6.3.3.7.5 1.2.5 3.3 0 6-3.4 6-7.5v-.5C12.2 8.8 11.1 6 9.5 6Z" />
    <path d="M18 6c-3 0-5.5 2.5-5.5 5.5 0 2.5 1.8 4.5 4 4.9-.3 1.6-1.4 2.9-3 3.6.3.3.7.5 1.2.5 3.3 0 6-3.4 6-7.5v-.5C20.7 8.8 19.6 6 18 6Z" />
  </symbol>

  <symbol id="icon-chevron" viewBox="0 0 24 24" fill="none" stroke="currentColor" stroke-width="1.8" stroke-linecap="round" stroke-linejoin="round">
    <path d="M6 9l6 6 6-6" />
  </symbol>
</svg>
